<svg
	width="154"
	height="26"
	viewBox="0 0 154 26"
	fill="none"
	xmlns="http://www.w3.org/2000/svg"
>
	<path
		d="M0 0.284668H8.36376C12.1213 0.284668 15.03 2.57369 15.03 5.45662C15.03 7.15174 13.9189 8.62001 12.2214 9.4985C14.8011 10.2615 16.5654 12.1835 16.5654 14.4725C16.5654 17.5823 13.5613 20.0692 9.6703 20.0692H0V0.284668ZM3.43324 2.79641V8.59114H8.10627C10.1328 8.59114 11.5681 7.29196 11.5681 5.70821C11.5681 4.07084 10.1281 2.79641 8.10627 2.79641H3.43324ZM13.1035 14.2745C13.1035 12.4928 11.5014 11.0534 9.2173 11.0534H3.43324V17.5534H9.2173C11.5014 17.5493 13.1035 16.1099 13.1035 14.2745Z"
		fill="white"
	/>
	<path
		d="M26.9891 5.36987C31.7909 5.36987 35.3195 8.56213 35.3195 12.8597V13.7918H21.7629C22.2207 16.1386 24.4761 17.8914 27.2847 17.8914C29.2112 17.8914 30.8467 17.215 32.0865 15.7715L34.4707 17.2975C32.8065 19.2195 30.3222 20.3784 27.28 20.3784C22.2827 20.3784 18.425 17.1573 18.425 12.8597C18.4298 8.78897 22.1206 5.36987 26.9891 5.36987ZM21.8249 11.5317H31.9864C31.4332 9.32926 29.3733 7.85687 26.9223 7.85687C24.4761 7.85687 22.4162 9.32514 21.8249 11.5317Z"
		fill="white"
	/>
	<path
		d="M37.3794 15.6025H40.5504C40.9414 17.2399 42.5769 18.0895 44.6369 18.0895C46.4346 18.0895 47.5456 17.3553 47.5456 16.2541C47.5456 15.3798 46.8256 14.757 45.2568 14.3899L42.1859 13.7341C39.2105 13.0825 37.675 11.7256 37.675 9.6634C37.675 7.03618 40.126 5.34106 43.4925 5.34106C47.3787 5.34106 49.9298 7.40325 50.3876 10.1171H47.2166C46.8256 8.47971 45.1566 7.63009 43.4591 7.63009C41.8569 7.63009 40.908 8.36422 40.908 9.38294C40.908 10.2862 41.7234 10.909 43.2922 11.2472L46.1675 11.8988C49.2384 12.5752 50.7738 13.961 50.7738 16.0232C50.7738 18.5102 48.3896 20.3744 44.6655 20.3744C40.6171 20.3785 37.9707 18.3411 37.3794 15.6025Z"
		fill="white"
	/>
	<path
		d="M54.2071 16.9593V8.16614H51.0361V5.65027H54.2071V1.41455H57.5068V5.6544H61.3311V8.17026H57.5068V16.3365C57.5068 17.1284 58.1267 17.5532 59.1424 17.5532H61.3311V20.0691H58.1601C55.6138 20.0649 54.2071 18.7658 54.2071 16.9593Z"
		fill="white"
	/>
	<path
		d="M65.1553 20.065V0H78.4877V3.13864H69.3705V8.81789H77.0476V11.9565H69.3705V20.0692H65.1553V20.065Z"
		fill="white"
	/>
	<path
		d="M88.9066 20.4072C86.3126 20.4072 84.1382 19.6979 82.3691 18.2749C80.6048 16.852 79.7227 15.0497 79.7227 12.8638C79.7227 10.6779 80.6048 8.87552 82.3691 7.45261C84.1334 6.0297 86.303 5.32031 88.8732 5.32031C91.4434 5.32031 93.6177 6.0297 95.3916 7.45261C97.1654 8.87552 98.0524 10.6779 98.0524 12.8638C98.0524 15.0497 97.1702 16.852 95.4059 18.2749C93.6464 19.6937 91.4767 20.4072 88.9066 20.4072ZM83.9427 12.8597C83.9427 14.1794 84.4195 15.2559 85.3827 16.0973C86.3412 16.9345 87.519 17.3552 88.9113 17.3552C90.2846 17.3552 91.4481 16.9345 92.4066 16.0973C93.365 15.26 93.8466 14.1794 93.8466 12.8597C93.8466 11.5605 93.365 10.484 92.4066 9.63852C91.4481 8.7889 90.2846 8.36822 88.9113 8.36822C87.538 8.36822 86.3698 8.79303 85.397 9.63852C84.4243 10.484 83.9427 11.5605 83.9427 12.8597Z"
		fill="white"
	/>
	<path
		d="M108.514 20.4072C105.92 20.4072 103.746 19.6979 101.977 18.2749C100.212 16.852 99.3303 15.0497 99.3303 12.8638C99.3303 10.6779 100.212 8.87552 101.977 7.45261C103.741 6.0297 105.911 5.32031 108.481 5.32031C111.051 5.32031 113.225 6.0297 114.999 7.45261C116.773 8.87552 117.66 10.6779 117.66 12.8638C117.66 15.0497 116.778 16.852 115.014 18.2749C113.254 19.6937 111.084 20.4072 108.514 20.4072ZM103.546 12.8597C103.546 14.1794 104.022 15.2559 104.986 16.0973C105.944 16.9345 107.122 17.3552 108.514 17.3552C109.888 17.3552 111.051 16.9345 112.009 16.0973C112.968 15.26 113.45 14.1794 113.45 12.8597C113.45 11.5605 112.968 10.484 112.009 9.63852C111.051 8.7889 109.888 8.36822 108.514 8.36822C107.141 8.36822 105.973 8.79303 105 9.63852C104.032 10.484 103.546 11.5605 103.546 12.8597Z"
		fill="white"
	/>
	<path
		d="M119.033 12.8598C119.033 10.5996 119.734 8.77665 121.141 7.39086C122.548 6.00508 124.36 5.31218 126.582 5.31218C127.259 5.31218 127.888 5.37405 128.475 5.49778C129.061 5.62151 129.524 5.76999 129.862 5.95146C130.201 6.12881 130.487 6.3144 130.73 6.50412C130.969 6.69384 131.131 6.84232 131.221 6.9578L131.384 7.15577H131.45C131.426 6.91244 131.417 6.6361 131.417 6.33503V0H135.565V20.065H131.646V18.8772L131.713 17.9451H131.646C131.603 18.0194 131.541 18.1101 131.465 18.2132C131.388 18.3163 131.202 18.5102 130.912 18.7906C130.616 19.0752 130.287 19.3227 129.915 19.5412C129.543 19.7598 129.047 19.9578 128.427 20.1352C127.807 20.3125 127.135 20.4032 126.42 20.4032C124.174 20.4032 122.386 19.7062 121.046 18.3122C119.706 16.9181 119.033 15.1034 119.033 12.8598ZM123.22 12.8598C123.22 14.2167 123.602 15.3096 124.365 16.1386C125.127 16.9676 126.129 17.3842 127.369 17.3842C128.546 17.3842 129.538 17.0006 130.344 16.2376C131.15 15.4746 131.555 14.3404 131.555 12.8309C131.555 11.6266 131.188 10.5831 130.459 9.70876C129.729 8.83439 128.709 8.39308 127.402 8.39308C126.205 8.39308 125.209 8.79315 124.412 9.59327C123.616 10.3975 123.22 11.4822 123.22 12.8598Z"
		fill="white"
	/>
	<path
		d="M137.072 25.0679L138.445 22.383C139.056 22.7789 139.676 22.9769 140.31 22.9769C141.616 22.9769 142.575 22.3541 143.185 21.1127L143.805 19.8424L136.781 5.65454H141.454L144.95 13.9651L145.569 15.916H145.636C145.813 15.1612 145.994 14.5302 146.189 14.0229L149.456 5.65867H154L146.552 22.2469C145.984 23.5089 145.174 24.4534 144.115 25.0721C143.056 25.6948 141.864 26.0042 140.539 26.0042C139.952 26.0042 139.366 25.9299 138.789 25.7773C138.212 25.6247 137.783 25.4762 137.497 25.3236L137.072 25.0679Z"
		fill="white"
	/>
</svg>
